<svg width="125" height="49" viewBox="0 0 125 49" fill="none" xmlns="http://www.w3.org/2000/svg">
<path d="M8.816 20.6023C8.784 20.3676 8.68267 20.1703 8.512 20.0103C8.34133 19.8503 8.128 19.7223 7.872 19.6263C7.62667 19.5303 7.34933 19.4663 7.04 19.4343C6.74133 19.3916 6.44267 19.3703 6.144 19.3703C5.088 19.3703 4.256 19.6103 3.648 20.0903C3.14667 20.4956 2.768 21.0343 2.512 21.7063C2.26667 22.3783 2.144 23.1143 2.144 23.9143C2.144 24.6716 2.25067 25.3383 2.464 25.9143C2.688 26.4796 2.992 26.9543 3.376 27.3383C3.76 27.7223 4.21333 28.0156 4.736 28.2183C5.26933 28.4103 5.84533 28.5063 6.464 28.5063C6.90133 28.5063 7.40267 28.4476 7.968 28.3303C8.544 28.2023 9.088 27.9623 9.6 27.6103L9.76 27.7863L9.408 28.5063C8.87467 28.7943 8.34133 29.0076 7.808 29.1463C7.28533 29.2743 6.74133 29.3383 6.176 29.3383C5.376 29.3383 4.65067 29.2103 4 28.9543C3.34933 28.6983 2.78933 28.3356 2.32 27.8663C1.86133 27.3863 1.504 26.821 1.248 26.1703C0.992 25.509 0.864 24.7783 0.864 23.9783C0.864 23.2316 0.976 22.5276 1.2 21.8663C1.43467 21.1943 1.776 20.613 2.224 20.1223C2.68267 19.6316 3.24267 19.2423 3.904 18.9543C4.576 18.6663 5.35467 18.5223 6.24 18.5223C6.432 18.5223 6.656 18.533 6.912 18.5543C7.17867 18.565 7.456 18.5916 7.744 18.6343C8.032 18.677 8.32533 18.7356 8.624 18.8103C8.92267 18.8743 9.21067 18.9596 9.488 19.0663L9.536 19.2103L9.328 20.6663H8.864L8.816 20.6023ZM16.5023 18.6983C16.6409 18.6983 16.8489 18.6983 17.1263 18.6983C17.4143 18.6876 17.7023 18.677 17.9903 18.6663C18.2783 18.6556 18.5343 18.6503 18.7583 18.6503C18.9929 18.6396 19.1369 18.6343 19.1903 18.6343L19.2703 18.7943L19.2063 20.5383H18.8063L18.7423 20.4743C18.7209 20.229 18.6889 20.037 18.6463 19.8983C18.6143 19.7596 18.5076 19.6583 18.3263 19.5943C18.1556 19.5303 17.8943 19.493 17.5423 19.4823C17.1903 19.4716 16.6943 19.4663 16.0543 19.4663H14.5183L14.4863 20.0903C14.4756 20.261 14.4649 20.405 14.4543 20.5223C14.4543 20.6396 14.4489 20.7836 14.4383 20.9543C14.4383 21.125 14.4383 21.333 14.4383 21.5783C14.4383 21.813 14.4383 22.389 14.4383 23.3063C14.7583 23.2956 15.0783 23.2903 15.3983 23.2903C15.7183 23.2903 16.0063 23.285 16.2623 23.2743C16.5289 23.2636 16.7529 23.2423 16.9343 23.2103C17.1156 23.1676 17.2383 23.109 17.3023 23.0343C17.3876 22.949 17.4623 22.8636 17.5263 22.7783C17.5903 22.693 17.6223 22.5703 17.6223 22.4103L17.7023 22.3303L17.9743 22.2983L18.0383 22.3303C18.0169 22.5756 17.9956 22.789 17.9743 22.9703C17.9636 23.1516 17.9583 23.3596 17.9583 23.5943C17.9583 23.8503 17.9636 24.0903 17.9743 24.3143C17.9956 24.5276 18.0169 24.7623 18.0383 25.0183L17.9743 25.0503L17.6863 25.0183L17.6223 24.9703C17.6223 24.7996 17.5903 24.645 17.5263 24.5063C17.4623 24.357 17.3876 24.2343 17.3023 24.1383C17.2383 24.0743 17.1156 24.0263 16.9343 23.9943C16.7529 23.9623 16.5343 23.941 16.2783 23.9303C16.0223 23.9196 15.7343 23.9143 15.4143 23.9143C15.0943 23.9143 14.7689 23.9143 14.4383 23.9143V25.4663C14.4383 25.8503 14.4383 26.165 14.4383 26.4103C14.4383 26.645 14.4383 26.8583 14.4383 27.0503C14.4489 27.2316 14.4596 27.4023 14.4703 27.5623C14.4809 27.7116 14.4969 27.8876 14.5183 28.0903C14.5183 28.293 14.6249 28.3943 14.8383 28.3943H16.1983C16.8383 28.3943 17.3396 28.3836 17.7023 28.3623C18.0756 28.3303 18.3583 28.2716 18.5503 28.1863C18.7423 28.101 18.8756 27.973 18.9503 27.8023C19.0356 27.621 19.1156 27.3863 19.1903 27.0983L19.2543 27.0343H19.6703L19.3823 29.0663L19.2543 29.2263C19.2009 29.2263 19.0783 29.221 18.8863 29.2103C18.6943 29.2103 18.4756 29.205 18.2303 29.1943C17.9956 29.1836 17.7556 29.173 17.5103 29.1623C17.2756 29.1623 17.0889 29.1623 16.9503 29.1623H13.7183C13.6436 29.1623 13.5209 29.1676 13.3503 29.1783C13.1796 29.189 13.0036 29.1996 12.8223 29.2103C12.6409 29.221 12.4649 29.2316 12.2943 29.2423C12.1236 29.253 12.0009 29.2583 11.9263 29.2583L11.8943 29.1943L11.9423 28.9063L12.0223 28.8423C12.1929 28.8423 12.3529 28.837 12.5023 28.8263C12.6516 28.805 12.7743 28.757 12.8703 28.6823C12.9556 28.6076 13.0356 28.5116 13.1103 28.3943C13.1956 28.277 13.2489 28.069 13.2703 27.7703C13.2703 27.6956 13.2703 27.6103 13.2703 27.5143C13.2809 27.4076 13.2863 27.2796 13.2863 27.1303C13.2969 26.981 13.3023 26.7996 13.3023 26.5863C13.3023 26.373 13.3023 26.1063 13.3023 25.7863V22.5383C13.3023 22.165 13.3023 21.8503 13.3023 21.5943C13.3023 21.3383 13.3023 21.1196 13.3023 20.9383C13.3023 20.757 13.2969 20.6023 13.2863 20.4743C13.2863 20.3463 13.2809 20.2183 13.2703 20.0903C13.2489 19.8023 13.1956 19.5996 13.1103 19.4823C13.0356 19.3543 12.9556 19.253 12.8703 19.1783C12.7743 19.1036 12.6516 19.061 12.5023 19.0503C12.3529 19.029 12.1929 19.0183 12.0223 19.0183L11.9423 18.9543L11.8943 18.6663L11.9263 18.6023C12.0009 18.6023 12.1236 18.6076 12.2943 18.6183C12.4649 18.629 12.6463 18.6396 12.8383 18.6503C13.0409 18.661 13.2329 18.6716 13.4143 18.6823C13.6063 18.693 13.7609 18.6983 13.8783 18.6983H16.5023ZM25.7549 29.2583C25.6802 29.2583 25.5575 29.253 25.3869 29.2423C25.2162 29.2316 25.0402 29.221 24.8589 29.2103C24.6775 29.1996 24.5015 29.189 24.3309 29.1783C24.1602 29.1676 24.0375 29.1623 23.9629 29.1623H23.6589C23.5842 29.1623 23.4615 29.1676 23.2909 29.1783C23.1202 29.189 22.9442 29.1996 22.7629 29.2103C22.5815 29.221 22.4055 29.2316 22.2349 29.2423C22.0642 29.253 21.9415 29.2583 21.8669 29.2583L21.8349 29.1943L21.8829 28.9063L21.9629 28.8423C22.0909 28.8423 22.2402 28.837 22.4109 28.8263C22.5815 28.805 22.7149 28.7623 22.8109 28.6983C22.8962 28.6343 22.9762 28.533 23.0509 28.3943C23.1255 28.2556 23.1789 28.0476 23.2109 27.7703C23.2109 27.6956 23.2109 27.6103 23.2109 27.5143C23.2215 27.4076 23.2269 27.2796 23.2269 27.1303C23.2375 26.981 23.2429 26.7996 23.2429 26.5863C23.2429 26.373 23.2429 26.1063 23.2429 25.7863V21.6263C23.2429 21.413 23.2375 21.173 23.2269 20.9063C23.2269 20.629 23.2162 20.357 23.1949 20.0903C23.1735 19.845 23.1255 19.653 23.0509 19.5143C22.9762 19.365 22.8962 19.253 22.8109 19.1783C22.7149 19.125 22.6135 19.0876 22.5069 19.0663C22.4109 19.0343 22.2295 19.0183 21.9629 19.0183L21.8829 18.9543L21.8349 18.6663L21.8669 18.6023C21.9415 18.6023 22.0375 18.6076 22.1549 18.6183C22.2829 18.629 22.4109 18.6396 22.5389 18.6503C22.6775 18.661 22.8162 18.6716 22.9549 18.6823C23.0935 18.693 23.2215 18.6983 23.3389 18.6983H23.9149C24.0322 18.6983 24.1655 18.6983 24.3149 18.6983C24.4642 18.6983 24.6135 18.6983 24.7629 18.6983C24.9229 18.6876 25.0669 18.6823 25.1949 18.6823C25.3229 18.6823 25.4295 18.6823 25.5149 18.6823C26.2295 18.6823 26.8322 18.7516 27.3229 18.8903C27.8242 19.029 28.2295 19.221 28.5389 19.4663C28.8482 19.701 29.0722 19.989 29.2109 20.3303C29.3602 20.661 29.4349 21.0183 29.4349 21.4023C29.4349 21.861 29.3495 22.261 29.1789 22.6023C29.0189 22.933 28.8109 23.221 28.5549 23.4663C28.2989 23.701 28.0109 23.893 27.6909 24.0423C27.3709 24.181 27.0562 24.2876 26.7469 24.3623C27.0882 24.8423 27.4402 25.317 27.8029 25.7863C28.1655 26.2556 28.5389 26.7143 28.9229 27.1623C29.1362 27.4076 29.3335 27.6263 29.5149 27.8183C29.6962 28.0103 29.8882 28.1756 30.0909 28.3143C30.3042 28.453 30.5389 28.565 30.7949 28.6503C31.0509 28.7356 31.3602 28.7996 31.7229 28.8423L31.8189 28.9063L31.8509 29.1943L31.8189 29.2583C31.5842 29.269 31.3175 29.2796 31.0189 29.2903C30.7202 29.3116 30.4855 29.3223 30.3149 29.3223C30.0375 29.3223 29.7975 29.2903 29.5949 29.2263C29.3922 29.1623 29.1949 29.061 29.0029 28.9223C28.8109 28.7836 28.6135 28.6023 28.4109 28.3783C28.2189 28.1543 27.9949 27.8876 27.7389 27.5783C27.7069 27.5463 27.6109 27.4236 27.4509 27.2103C27.3015 26.9863 27.1149 26.725 26.8909 26.4263C26.6775 26.117 26.4482 25.7916 26.2029 25.4503C25.9682 25.0983 25.7495 24.773 25.5469 24.4743H24.3789C24.3789 24.7623 24.3789 25.077 24.3789 25.4183C24.3789 25.7596 24.3789 26.085 24.3789 26.3943C24.3895 26.7036 24.3949 26.9863 24.3949 27.2423C24.4055 27.4876 24.4162 27.6636 24.4269 27.7703C24.4482 28.0796 24.5015 28.2983 24.5869 28.4263C24.6722 28.5436 24.7469 28.629 24.8109 28.6823C24.9069 28.7356 25.0029 28.7783 25.0989 28.8103C25.2055 28.8316 25.3975 28.8423 25.6749 28.8423L25.7389 28.9063L25.7869 29.1943L25.7549 29.2583ZM25.8349 23.7703C26.7202 23.7703 27.3549 23.5676 27.7389 23.1623C28.1335 22.7463 28.3309 22.1916 28.3309 21.4983C28.3309 20.8476 28.1069 20.3463 27.6589 19.9943C27.2215 19.6423 26.6189 19.4663 25.8509 19.4663H24.4589C24.4375 19.7756 24.4215 20.037 24.4109 20.2503C24.4109 20.4636 24.4055 20.6503 24.3949 20.8103C24.3842 20.9703 24.3789 21.1143 24.3789 21.2423C24.3789 21.3703 24.3789 21.493 24.3789 21.6103V23.1783C24.3789 23.317 24.3842 23.429 24.3949 23.5143C24.4055 23.589 24.4322 23.6476 24.4749 23.6903C24.5175 23.7223 24.5762 23.7436 24.6509 23.7543C24.7362 23.765 24.8482 23.7703 24.9869 23.7703H25.8349ZM36.758 29.2583C36.6833 29.2583 36.5607 29.253 36.39 29.2423C36.2193 29.2316 36.0433 29.221 35.862 29.2103C35.6807 29.1996 35.5047 29.189 35.334 29.1783C35.1633 29.1676 35.0407 29.1623 34.966 29.1623H34.662C34.5873 29.1623 34.4647 29.1676 34.294 29.1783C34.1233 29.189 33.9473 29.1996 33.766 29.2103C33.5847 29.221 33.4087 29.2316 33.238 29.2423C33.0673 29.253 32.9447 29.2583 32.87 29.2583L32.838 29.1943L32.886 28.9063L32.966 28.8423C33.094 28.8423 33.2433 28.837 33.414 28.8263C33.5847 28.805 33.718 28.7623 33.814 28.6983C33.8993 28.6343 33.9793 28.533 34.054 28.3943C34.1287 28.2556 34.182 28.0476 34.214 27.7703C34.214 27.6956 34.214 27.6103 34.214 27.5143C34.2247 27.4076 34.23 27.2796 34.23 27.1303C34.2407 26.981 34.246 26.7996 34.246 26.5863C34.246 26.373 34.246 26.1063 34.246 25.7863V21.6263C34.246 21.413 34.2407 21.173 34.23 20.9063C34.23 20.629 34.2193 20.357 34.198 20.0903C34.1767 19.845 34.1287 19.653 34.054 19.5143C33.9793 19.365 33.8993 19.253 33.814 19.1783C33.718 19.125 33.6167 19.0876 33.51 19.0663C33.414 19.0343 33.2327 19.0183 32.966 19.0183L32.886 18.9543L32.838 18.6663L32.87 18.6023C32.9447 18.6023 33.0407 18.6076 33.158 18.6183C33.286 18.629 33.414 18.6396 33.542 18.6503C33.6807 18.661 33.8193 18.6716 33.958 18.6823C34.0967 18.693 34.2247 18.6983 34.342 18.6983H34.918C35.0353 18.6983 35.1687 18.6983 35.318 18.6983C35.4673 18.6983 35.6167 18.6983 35.766 18.6983C35.926 18.6876 36.07 18.6823 36.198 18.6823C36.326 18.6823 36.4327 18.6823 36.518 18.6823C37.2327 18.6823 37.8353 18.7516 38.326 18.8903C38.8273 19.029 39.2327 19.221 39.542 19.4663C39.8513 19.701 40.0753 19.989 40.214 20.3303C40.3633 20.661 40.438 21.0183 40.438 21.4023C40.438 21.861 40.3527 22.261 40.182 22.6023C40.022 22.933 39.814 23.221 39.558 23.4663C39.302 23.701 39.014 23.893 38.694 24.0423C38.374 24.181 38.0593 24.2876 37.75 24.3623C38.0913 24.8423 38.4433 25.317 38.806 25.7863C39.1687 26.2556 39.542 26.7143 39.926 27.1623C40.1393 27.4076 40.3367 27.6263 40.518 27.8183C40.6993 28.0103 40.8913 28.1756 41.094 28.3143C41.3073 28.453 41.542 28.565 41.798 28.6503C42.054 28.7356 42.3633 28.7996 42.726 28.8423L42.822 28.9063L42.854 29.1943L42.822 29.2583C42.5873 29.269 42.3207 29.2796 42.022 29.2903C41.7233 29.3116 41.4887 29.3223 41.318 29.3223C41.0407 29.3223 40.8007 29.2903 40.598 29.2263C40.3953 29.1623 40.198 29.061 40.006 28.9223C39.814 28.7836 39.6167 28.6023 39.414 28.3783C39.222 28.1543 38.998 27.8876 38.742 27.5783C38.71 27.5463 38.614 27.4236 38.454 27.2103C38.3047 26.9863 38.118 26.725 37.894 26.4263C37.6807 26.117 37.4513 25.7916 37.206 25.4503C36.9713 25.0983 36.7527 24.773 36.55 24.4743H35.382C35.382 24.7623 35.382 25.077 35.382 25.4183C35.382 25.7596 35.382 26.085 35.382 26.3943C35.3927 26.7036 35.398 26.9863 35.398 27.2423C35.4087 27.4876 35.4193 27.6636 35.43 27.7703C35.4513 28.0796 35.5047 28.2983 35.59 28.4263C35.6753 28.5436 35.75 28.629 35.814 28.6823C35.91 28.7356 36.006 28.7783 36.102 28.8103C36.2087 28.8316 36.4007 28.8423 36.678 28.8423L36.742 28.9063L36.79 29.1943L36.758 29.2583ZM36.838 23.7703C37.7233 23.7703 38.358 23.5676 38.742 23.1623C39.1367 22.7463 39.334 22.1916 39.334 21.4983C39.334 20.8476 39.11 20.3463 38.662 19.9943C38.2247 19.6423 37.622 19.4663 36.854 19.4663H35.462C35.4407 19.7756 35.4247 20.037 35.414 20.2503C35.414 20.4636 35.4087 20.6503 35.398 20.8103C35.3873 20.9703 35.382 21.1143 35.382 21.2423C35.382 21.3703 35.382 21.493 35.382 21.6103V23.1783C35.382 23.317 35.3873 23.429 35.398 23.5143C35.4087 23.589 35.4353 23.6476 35.478 23.6903C35.5207 23.7223 35.5793 23.7436 35.654 23.7543C35.7393 23.765 35.8513 23.7703 35.99 23.7703H36.838ZM49.1051 18.5223L51.7291 25.7863C51.8358 26.1063 51.9265 26.373 52.0011 26.5863C52.0865 26.7996 52.1558 26.981 52.2091 27.1303C52.2731 27.2796 52.3265 27.4076 52.3691 27.5143C52.4118 27.6103 52.4491 27.6956 52.4811 27.7703C52.5985 28.037 52.7158 28.245 52.8331 28.3943C52.9611 28.533 53.0891 28.6396 53.2171 28.7143C53.3451 28.7783 53.4731 28.8156 53.6011 28.8263C53.7398 28.837 53.8785 28.8423 54.0171 28.8423L54.0971 28.9063L54.1451 29.1943L54.1131 29.2583C54.0385 29.2583 53.9265 29.253 53.7771 29.2423C53.6278 29.2316 53.4731 29.221 53.3131 29.2103C53.1531 29.1996 52.9985 29.189 52.8491 29.1783C52.7105 29.1676 52.6038 29.1623 52.5291 29.1623H52.0011C51.9265 29.1623 51.8038 29.1676 51.6331 29.1783C51.4625 29.189 51.2811 29.1996 51.0891 29.2103C50.9078 29.221 50.7318 29.2316 50.5611 29.2423C50.3905 29.253 50.2678 29.2583 50.1931 29.2583L50.1611 29.1943L50.2091 28.9063L50.2731 28.8423C50.5825 28.8423 50.8225 28.8103 50.9931 28.7463C51.1638 28.6716 51.2491 28.4796 51.2491 28.1703C51.2491 27.925 51.1638 27.5836 50.9931 27.1463C50.8331 26.6983 50.6305 26.1383 50.3851 25.4663L50.1131 24.6983H46.5291L46.2571 25.4663C46.0118 26.1383 45.8038 26.6983 45.6331 27.1463C45.4731 27.5836 45.3931 27.925 45.3931 28.1703C45.3931 28.4796 45.4785 28.6716 45.6491 28.7463C45.8198 28.8103 46.0598 28.8423 46.3691 28.8423L46.4491 28.9063L46.4971 29.1943L46.4651 29.2583C46.3905 29.2583 46.2731 29.253 46.1131 29.2423C45.9531 29.2316 45.7825 29.221 45.6011 29.2103C45.4305 29.1996 45.2651 29.189 45.1051 29.1783C44.9451 29.1676 44.8278 29.1623 44.7531 29.1623H44.4491C44.3745 29.1623 44.2625 29.1676 44.1131 29.1783C43.9638 29.189 43.8091 29.1996 43.6491 29.2103C43.4891 29.221 43.3345 29.2316 43.1851 29.2423C43.0465 29.253 42.9398 29.2583 42.8651 29.2583L42.8491 29.1943L42.8811 28.9063L42.9611 28.8423C43.0998 28.8423 43.2331 28.837 43.3611 28.8263C43.4891 28.8156 43.6171 28.7783 43.7451 28.7143C43.8731 28.6396 43.9958 28.533 44.1131 28.3943C44.2411 28.245 44.3691 28.037 44.4971 27.7703C44.5291 27.717 44.5558 27.6583 44.5771 27.5943C44.6091 27.5196 44.6518 27.413 44.7051 27.2743C44.7691 27.1356 44.8438 26.9543 44.9291 26.7303C45.0251 26.4956 45.1425 26.197 45.2811 25.8343C45.4305 25.461 45.6065 25.0076 45.8091 24.4743C46.0225 23.941 46.2785 23.2956 46.5771 22.5383C46.7158 22.165 46.8598 21.797 47.0091 21.4343C47.1585 21.061 47.2971 20.7143 47.4251 20.3943C47.5531 20.0743 47.6651 19.7916 47.7611 19.5463C47.8678 19.301 47.9425 19.1196 47.9851 19.0023L48.9291 18.5223H49.1051ZM46.8011 24.0103H49.8571L48.3371 19.8983L46.8011 24.0103ZM59.358 29.2583C59.2833 29.2583 59.1607 29.253 58.99 29.2423C58.8193 29.2316 58.6433 29.221 58.462 29.2103C58.2807 29.1996 58.1047 29.189 57.934 29.1783C57.7633 29.1676 57.6407 29.1623 57.566 29.1623H57.262C57.1873 29.1623 57.0647 29.1676 56.894 29.1783C56.7233 29.189 56.5473 29.1996 56.366 29.2103C56.1847 29.221 56.0087 29.2316 55.838 29.2423C55.6673 29.253 55.5447 29.2583 55.47 29.2583L55.438 29.1943L55.486 28.9063L55.566 28.8423C55.694 28.8423 55.8433 28.837 56.014 28.8263C56.1847 28.805 56.318 28.7623 56.414 28.6983C56.4993 28.6343 56.5793 28.533 56.654 28.3943C56.7287 28.2556 56.782 28.0476 56.814 27.7703C56.814 27.6956 56.814 27.6103 56.814 27.5143C56.8247 27.4076 56.83 27.2796 56.83 27.1303C56.8407 26.981 56.846 26.7996 56.846 26.5863C56.846 26.373 56.846 26.1063 56.846 25.7863V21.6263C56.846 21.413 56.8407 21.173 56.83 20.9063C56.83 20.629 56.8193 20.357 56.798 20.0903C56.7767 19.845 56.7287 19.653 56.654 19.5143C56.5793 19.365 56.4993 19.253 56.414 19.1783C56.318 19.125 56.2167 19.0876 56.11 19.0663C56.014 19.0343 55.8327 19.0183 55.566 19.0183L55.486 18.9543L55.438 18.6663L55.47 18.6023C55.5447 18.6023 55.6407 18.6076 55.758 18.6183C55.886 18.629 56.014 18.6396 56.142 18.6503C56.2807 18.661 56.4193 18.6716 56.558 18.6823C56.6967 18.693 56.8247 18.6983 56.942 18.6983H57.518C57.6353 18.6983 57.7687 18.6983 57.918 18.6983C58.0673 18.6983 58.2167 18.6983 58.366 18.6983C58.526 18.6876 58.67 18.6823 58.798 18.6823C58.926 18.6823 59.0327 18.6823 59.118 18.6823C59.8327 18.6823 60.4353 18.7516 60.926 18.8903C61.4273 19.029 61.8327 19.221 62.142 19.4663C62.4513 19.701 62.6753 19.989 62.814 20.3303C62.9633 20.661 63.038 21.0183 63.038 21.4023C63.038 21.861 62.9527 22.261 62.782 22.6023C62.622 22.933 62.414 23.221 62.158 23.4663C61.902 23.701 61.614 23.893 61.294 24.0423C60.974 24.181 60.6593 24.2876 60.35 24.3623C60.6913 24.8423 61.0433 25.317 61.406 25.7863C61.7687 26.2556 62.142 26.7143 62.526 27.1623C62.7393 27.4076 62.9367 27.6263 63.118 27.8183C63.2993 28.0103 63.4913 28.1756 63.694 28.3143C63.9073 28.453 64.142 28.565 64.398 28.6503C64.654 28.7356 64.9633 28.7996 65.326 28.8423L65.422 28.9063L65.454 29.1943L65.422 29.2583C65.1873 29.269 64.9207 29.2796 64.622 29.2903C64.3233 29.3116 64.0887 29.3223 63.918 29.3223C63.6407 29.3223 63.4007 29.2903 63.198 29.2263C62.9953 29.1623 62.798 29.061 62.606 28.9223C62.414 28.7836 62.2167 28.6023 62.014 28.3783C61.822 28.1543 61.598 27.8876 61.342 27.5783C61.31 27.5463 61.214 27.4236 61.054 27.2103C60.9047 26.9863 60.718 26.725 60.494 26.4263C60.2807 26.117 60.0513 25.7916 59.806 25.4503C59.5713 25.0983 59.3527 24.773 59.15 24.4743H57.982C57.982 24.7623 57.982 25.077 57.982 25.4183C57.982 25.7596 57.982 26.085 57.982 26.3943C57.9927 26.7036 57.998 26.9863 57.998 27.2423C58.0087 27.4876 58.0193 27.6636 58.03 27.7703C58.0513 28.0796 58.1047 28.2983 58.19 28.4263C58.2753 28.5436 58.35 28.629 58.414 28.6823C58.51 28.7356 58.606 28.7783 58.702 28.8103C58.8087 28.8316 59.0007 28.8423 59.278 28.8423L59.342 28.9063L59.39 29.1943L59.358 29.2583ZM59.438 23.7703C60.3233 23.7703 60.958 23.5676 61.342 23.1623C61.7367 22.7463 61.934 22.1916 61.934 21.4983C61.934 20.8476 61.71 20.3463 61.262 19.9943C60.8247 19.6423 60.222 19.4663 59.454 19.4663H58.062C58.0407 19.7756 58.0247 20.037 58.014 20.2503C58.014 20.4636 58.0087 20.6503 57.998 20.8103C57.9873 20.9703 57.982 21.1143 57.982 21.2423C57.982 21.3703 57.982 21.493 57.982 21.6103V23.1783C57.982 23.317 57.9873 23.429 57.998 23.5143C58.0087 23.589 58.0353 23.6476 58.078 23.6903C58.1207 23.7223 58.1793 23.7436 58.254 23.7543C58.3393 23.765 58.4513 23.7703 58.59 23.7703H59.438Z" fill="white"/>
<rect width="48.1375" height="0.977522" transform="matrix(0.907811 0.41938 -0.153571 0.988138 81.1501 14.1794)" fill="white"/>
<rect width="48.1375" height="0.977522" transform="matrix(0.907811 -0.41938 0.153571 0.988138 81.1501 34.1793)" fill="white"/>
</svg>
