<svg width="114" height="49" viewBox="0 0 114 49" fill="none" xmlns="http://www.w3.org/2000/svg">
<path d="M13.984 29.2583C13.9093 29.2583 13.7867 29.253 13.616 29.2423C13.4453 29.2316 13.2693 29.221 13.088 29.2103C12.9067 29.1996 12.7307 29.189 12.56 29.1783C12.3893 29.1676 12.2667 29.1623 12.192 29.1623H11.888C11.8133 29.1623 11.6907 29.1676 11.52 29.1783C11.3493 29.189 11.1733 29.1996 10.992 29.2103C10.8107 29.221 10.6347 29.2316 10.464 29.2423C10.2933 29.253 10.1707 29.2583 10.096 29.2583L10.048 29.1943L10.096 28.9063L10.16 28.8423C10.3307 28.8423 10.4907 28.837 10.64 28.8263C10.8 28.805 10.9227 28.757 11.008 28.6823C11.0827 28.6076 11.152 28.5116 11.216 28.3943C11.2907 28.277 11.328 28.069 11.328 27.7703C11.328 27.6956 11.328 27.6103 11.328 27.5143C11.328 27.4076 11.3227 27.2796 11.312 27.1303C11.312 26.981 11.3067 26.7996 11.296 26.5863C11.2853 26.373 11.2693 26.1063 11.248 25.7863C11.1627 24.6663 11.0933 23.7756 11.04 23.1143C10.9973 22.4423 10.96 21.9196 10.928 21.5463C10.896 21.173 10.8693 20.9063 10.848 20.7463C10.8373 20.5863 10.8267 20.453 10.816 20.3463C10.7413 20.5383 10.624 20.837 10.464 21.2423C10.304 21.637 10.1173 22.0956 9.904 22.6183C9.70133 23.1303 9.48267 23.6796 9.248 24.2663C9.01333 24.853 8.77867 25.4343 8.544 26.0103C8.32 26.5863 8.10133 27.1303 7.888 27.6423C7.68533 28.1543 7.50933 28.5916 7.36 28.9543H6.608L3.408 20.3783C3.39733 20.485 3.38667 20.597 3.376 20.7143C3.36533 20.8316 3.35467 20.9756 3.344 21.1463C3.33333 21.3063 3.31733 21.4983 3.296 21.7223C3.28533 21.9356 3.26933 22.2023 3.248 22.5223L3.024 25.4663C2.992 25.829 2.97067 26.1276 2.96 26.3623C2.94933 26.597 2.93867 26.7996 2.928 26.9703C2.91733 27.141 2.912 27.285 2.912 27.4023C2.912 27.5196 2.912 27.6423 2.912 27.7703C2.912 28.069 2.944 28.277 3.008 28.3943C3.08267 28.5116 3.16267 28.6076 3.248 28.6823C3.33333 28.757 3.42933 28.805 3.536 28.8263C3.65333 28.837 3.79733 28.8423 3.968 28.8423L4.032 28.9063L4.08 29.1943L4.048 29.2583C3.97333 29.2583 3.86133 29.253 3.712 29.2423C3.57333 29.2316 3.42933 29.221 3.28 29.2103C3.13067 29.1996 2.98133 29.189 2.832 29.1783C2.69333 29.1676 2.58667 29.1623 2.512 29.1623H2.208C2.13333 29.1623 2.01067 29.1676 1.84 29.1783C1.68 29.189 1.504 29.1996 1.312 29.2103C1.13067 29.221 0.954667 29.2316 0.784 29.2423C0.624 29.253 0.506667 29.2583 0.432 29.2583L0.4 29.1943L0.448 28.9063L0.544 28.8423C0.704 28.8423 0.858667 28.837 1.008 28.8263C1.15733 28.805 1.28533 28.757 1.392 28.6823C1.47733 28.6076 1.56267 28.5116 1.648 28.3943C1.744 28.277 1.81333 28.069 1.856 27.7703C1.86667 27.6956 1.87733 27.6103 1.888 27.5143C1.89867 27.4076 1.90933 27.2796 1.92 27.1303C1.94133 26.981 1.96267 26.7996 1.984 26.5863C2.00533 26.373 2.02667 26.1063 2.048 25.7863L2.272 22.5383C2.304 22.165 2.32533 21.8503 2.336 21.5943C2.35733 21.3383 2.368 21.1196 2.368 20.9383C2.37867 20.757 2.384 20.6023 2.384 20.4743C2.39467 20.3463 2.4 20.2183 2.4 20.0903C2.4 19.7916 2.352 19.5836 2.256 19.4663C2.17067 19.3383 2.08533 19.2423 2 19.1783C1.904 19.1036 1.78133 19.061 1.632 19.0503C1.48267 19.029 1.32267 19.0183 1.152 19.0183L1.072 18.9543L1.024 18.6663L1.056 18.6023C1.13067 18.6023 1.25333 18.6076 1.424 18.6183C1.59467 18.629 1.77067 18.6396 1.952 18.6503C2.13333 18.661 2.30933 18.6716 2.48 18.6823C2.65067 18.693 2.77333 18.6983 2.848 18.6983H3.408C3.49333 18.6983 3.61067 18.693 3.76 18.6823C3.92 18.6716 4.048 18.6556 4.144 18.6343L4.224 18.6823C4.23467 18.821 4.272 19.0076 4.336 19.2423C4.41067 19.4663 4.496 19.7223 4.592 20.0103C4.69867 20.2983 4.81067 20.6076 4.928 20.9383C5.04533 21.2583 5.16267 21.5783 5.28 21.8983L6.368 24.8583C6.54933 25.3703 6.71467 25.8076 6.864 26.1703C7.01333 26.5223 7.14667 26.837 7.264 27.1143C7.296 27.061 7.38667 26.8583 7.536 26.5063C7.68533 26.1436 7.86667 25.701 8.08 25.1783C8.304 24.645 8.53867 24.0636 8.784 23.4343C9.02933 22.805 9.264 22.1916 9.488 21.5943C9.712 20.9863 9.904 20.4263 10.064 19.9143C10.224 19.4023 10.3253 18.997 10.368 18.6983L10.448 18.6343C10.5333 18.6556 10.624 18.6716 10.72 18.6823C10.816 18.693 10.9067 18.6983 10.992 18.6983H11.568C11.6427 18.6983 11.7653 18.693 11.936 18.6823C12.1067 18.6716 12.2827 18.661 12.464 18.6503C12.6453 18.6396 12.8213 18.629 12.992 18.6183C13.1627 18.6076 13.2853 18.6023 13.36 18.6023L13.392 18.6663L13.344 18.9543L13.264 19.0183C13.0933 19.0183 12.928 19.029 12.768 19.0503C12.6187 19.061 12.5013 19.1036 12.416 19.1783C12.3307 19.2423 12.24 19.3383 12.144 19.4663C12.0587 19.5943 12.016 19.8023 12.016 20.0903C12.016 20.2396 12.016 20.3783 12.016 20.5063C12.0267 20.6343 12.032 20.7836 12.032 20.9543C12.0427 21.125 12.0533 21.333 12.064 21.5783C12.0853 21.8236 12.112 22.1383 12.144 22.5223L12.336 25.4663C12.368 25.8503 12.3893 26.165 12.4 26.4103C12.4213 26.645 12.4373 26.8423 12.448 27.0023C12.4693 27.1623 12.4853 27.301 12.496 27.4183C12.5173 27.525 12.5387 27.6423 12.56 27.7703C12.6027 28.069 12.6667 28.277 12.752 28.3943C12.8373 28.5116 12.9227 28.6076 13.008 28.6823C13.104 28.757 13.2267 28.805 13.376 28.8263C13.536 28.837 13.7013 28.8423 13.872 28.8423L13.952 28.9063L14 29.1943L13.984 29.2583ZM20.5179 18.6983C20.6565 18.6983 20.8645 18.6983 21.1419 18.6983C21.4299 18.6876 21.7179 18.677 22.0059 18.6663C22.2939 18.6556 22.5499 18.6503 22.7739 18.6503C23.0085 18.6396 23.1525 18.6343 23.2059 18.6343L23.2859 18.7943L23.2219 20.5383H22.8219L22.7579 20.4743C22.7365 20.229 22.7045 20.037 22.6619 19.8983C22.6299 19.7596 22.5232 19.6583 22.3419 19.5943C22.1712 19.5303 21.9099 19.493 21.5579 19.4823C21.2059 19.4716 20.7099 19.4663 20.0699 19.4663H18.5339L18.5019 20.0903C18.4912 20.261 18.4805 20.405 18.4699 20.5223C18.4699 20.6396 18.4645 20.7836 18.4539 20.9543C18.4539 21.125 18.4539 21.333 18.4539 21.5783C18.4539 21.813 18.4539 22.389 18.4539 23.3063C18.7739 23.2956 19.0939 23.2903 19.4139 23.2903C19.7339 23.2903 20.0219 23.285 20.2779 23.2743C20.5445 23.2636 20.7685 23.2423 20.9499 23.2103C21.1312 23.1676 21.2539 23.109 21.3179 23.0343C21.4032 22.949 21.4779 22.8636 21.5419 22.7783C21.6059 22.693 21.6379 22.5703 21.6379 22.4103L21.7179 22.3303L21.9899 22.2983L22.0539 22.3303C22.0325 22.5756 22.0112 22.789 21.9899 22.9703C21.9792 23.1516 21.9739 23.3596 21.9739 23.5943C21.9739 23.8503 21.9792 24.0903 21.9899 24.3143C22.0112 24.5276 22.0325 24.7623 22.0539 25.0183L21.9899 25.0503L21.7019 25.0183L21.6379 24.9703C21.6379 24.7996 21.6059 24.645 21.5419 24.5063C21.4779 24.357 21.4032 24.2343 21.3179 24.1383C21.2539 24.0743 21.1312 24.0263 20.9499 23.9943C20.7685 23.9623 20.5499 23.941 20.2939 23.9303C20.0379 23.9196 19.7499 23.9143 19.4299 23.9143C19.1099 23.9143 18.7845 23.9143 18.4539 23.9143V25.4663C18.4539 25.8503 18.4539 26.165 18.4539 26.4103C18.4539 26.645 18.4539 26.8583 18.4539 27.0503C18.4645 27.2316 18.4752 27.4023 18.4859 27.5623C18.4965 27.7116 18.5125 27.8876 18.5339 28.0903C18.5339 28.293 18.6405 28.3943 18.8539 28.3943H20.2139C20.8539 28.3943 21.3552 28.3836 21.7179 28.3623C22.0912 28.3303 22.3739 28.2716 22.5659 28.1863C22.7579 28.101 22.8912 27.973 22.9659 27.8023C23.0512 27.621 23.1312 27.3863 23.2059 27.0983L23.2699 27.0343H23.6859L23.3979 29.0663L23.2699 29.2263C23.2165 29.2263 23.0939 29.221 22.9019 29.2103C22.7099 29.2103 22.4912 29.205 22.2459 29.1943C22.0112 29.1836 21.7712 29.173 21.5259 29.1623C21.2912 29.1623 21.1045 29.1623 20.9659 29.1623H17.7339C17.6592 29.1623 17.5365 29.1676 17.3659 29.1783C17.1952 29.189 17.0192 29.1996 16.8379 29.2103C16.6565 29.221 16.4805 29.2316 16.3099 29.2423C16.1392 29.253 16.0165 29.2583 15.9419 29.2583L15.9099 29.1943L15.9579 28.9063L16.0379 28.8423C16.2085 28.8423 16.3685 28.837 16.5179 28.8263C16.6672 28.805 16.7899 28.757 16.8859 28.6823C16.9712 28.6076 17.0512 28.5116 17.1259 28.3943C17.2112 28.277 17.2645 28.069 17.2859 27.7703C17.2859 27.6956 17.2859 27.6103 17.2859 27.5143C17.2965 27.4076 17.3019 27.2796 17.3019 27.1303C17.3125 26.981 17.3179 26.7996 17.3179 26.5863C17.3179 26.373 17.3179 26.1063 17.3179 25.7863V22.5383C17.3179 22.165 17.3179 21.8503 17.3179 21.5943C17.3179 21.3383 17.3179 21.1196 17.3179 20.9383C17.3179 20.757 17.3125 20.6023 17.3019 20.4743C17.3019 20.3463 17.2965 20.2183 17.2859 20.0903C17.2645 19.8023 17.2112 19.5996 17.1259 19.4823C17.0512 19.3543 16.9712 19.253 16.8859 19.1783C16.7899 19.1036 16.6672 19.061 16.5179 19.0503C16.3685 19.029 16.2085 19.0183 16.0379 19.0183L15.9579 18.9543L15.9099 18.6663L15.9419 18.6023C16.0165 18.6023 16.1392 18.6076 16.3099 18.6183C16.4805 18.629 16.6619 18.6396 16.8539 18.6503C17.0565 18.661 17.2485 18.6716 17.4299 18.6823C17.6219 18.693 17.7765 18.6983 17.8939 18.6983H20.5179ZM36.4905 18.6663L36.4585 18.9543L36.3785 19.0183C36.2078 19.0183 36.0425 19.029 35.8825 19.0503C35.7332 19.061 35.6158 19.1036 35.5305 19.1783C35.4452 19.253 35.3652 19.349 35.2905 19.4663C35.2265 19.5836 35.1838 19.7916 35.1625 20.0903C35.1518 20.2396 35.1412 20.3783 35.1305 20.5063C35.1305 20.6343 35.1252 20.7836 35.1145 20.9543C35.1145 21.125 35.1145 21.333 35.1145 21.5783C35.1145 21.8236 35.1145 22.1383 35.1145 22.5223V25.3383C35.1145 25.9356 35.1145 26.4263 35.1145 26.8103C35.1252 27.1943 35.1305 27.525 35.1305 27.8023C35.1412 28.069 35.1518 28.309 35.1625 28.5223C35.1838 28.7356 35.2052 28.9703 35.2265 29.2263L35.0985 29.3063L34.1065 29.2423L33.9465 29.0503L28.2505 20.5223C28.2505 20.629 28.2452 20.7356 28.2345 20.8423C28.2345 20.949 28.2345 21.0823 28.2345 21.2423C28.2345 21.3916 28.2345 21.5676 28.2345 21.7703C28.2345 21.973 28.2345 22.2236 28.2345 22.5223V25.4663C28.2345 25.5943 28.2345 25.765 28.2345 25.9783C28.2345 26.181 28.2345 26.3943 28.2345 26.6183C28.2452 26.8423 28.2505 27.061 28.2505 27.2743C28.2612 27.477 28.2718 27.6423 28.2825 27.7703C28.3038 28.037 28.3465 28.2396 28.4105 28.3783C28.4852 28.5063 28.5758 28.6076 28.6825 28.6823C28.7678 28.7463 28.8798 28.789 29.0185 28.8103C29.1572 28.8316 29.3332 28.8423 29.5465 28.8423L29.6265 28.9063L29.6745 29.1943L29.6425 29.2583C29.5678 29.2583 29.4505 29.253 29.2905 29.2423C29.1412 29.2316 28.9812 29.221 28.8105 29.2103C28.6398 29.1996 28.4745 29.189 28.3145 29.1783C28.1652 29.1676 28.0532 29.1623 27.9785 29.1623H27.6745C27.5998 29.1623 27.4772 29.1676 27.3065 29.1783C27.1358 29.189 26.9598 29.1996 26.7785 29.2103C26.5972 29.221 26.4212 29.2316 26.2505 29.2423C26.0798 29.253 25.9572 29.2583 25.8825 29.2583L25.8505 29.1943L25.8985 28.9063L25.9785 28.8423C26.1705 28.8423 26.3305 28.837 26.4585 28.8263C26.5972 28.805 26.7198 28.757 26.8265 28.6823C26.9012 28.629 26.9758 28.5436 27.0505 28.4263C27.1358 28.2983 27.1945 28.0796 27.2265 27.7703C27.2372 27.6956 27.2425 27.6103 27.2425 27.5143C27.2532 27.4076 27.2585 27.2796 27.2585 27.1303C27.2585 26.981 27.2585 26.7996 27.2585 26.5863C27.2585 26.373 27.2585 26.1063 27.2585 25.7863V22.5383C27.2585 22.165 27.2585 21.8503 27.2585 21.5943C27.2585 21.3383 27.2585 21.1196 27.2585 20.9383C27.2585 20.757 27.2532 20.6023 27.2425 20.4743C27.2425 20.3463 27.2372 20.2183 27.2265 20.0903C27.2052 19.8663 27.1572 19.6796 27.0825 19.5303C27.0078 19.3703 26.9225 19.253 26.8265 19.1783C26.7305 19.1036 26.6078 19.061 26.4585 19.0503C26.3198 19.029 26.1598 19.0183 25.9785 19.0183L25.8985 18.9543L25.8505 18.6663L25.8825 18.6023C25.9572 18.6023 26.0638 18.6076 26.2025 18.6183C26.3518 18.629 26.5012 18.6396 26.6505 18.6503C26.7998 18.661 26.9438 18.6716 27.0825 18.6823C27.2318 18.693 27.3438 18.6983 27.4185 18.6983H27.9785C28.0638 18.6983 28.1812 18.693 28.3305 18.6823C28.4905 18.6716 28.6185 18.6556 28.7145 18.6343L28.7945 18.6823C28.8372 18.8316 28.9225 19.0396 29.0505 19.3063C29.1892 19.5623 29.3492 19.8503 29.5305 20.1703C29.7225 20.4903 29.9252 20.8316 30.1385 21.1943C30.3625 21.557 30.5865 21.9143 30.8105 22.2663C31.6212 23.5676 32.3252 24.629 32.9225 25.4503C33.5305 26.2716 33.9198 26.805 34.0905 27.0503C34.0905 26.9756 34.0905 26.9063 34.0905 26.8423C34.1012 26.7783 34.1065 26.7036 34.1065 26.6183C34.1065 26.533 34.1065 26.4263 34.1065 26.2983C34.1065 26.1703 34.1065 25.9996 34.1065 25.7863V22.5383C34.1065 22.165 34.1065 21.8503 34.1065 21.5943C34.1065 21.3383 34.1012 21.1196 34.0905 20.9383C34.0905 20.757 34.0852 20.6023 34.0745 20.4743C34.0745 20.3463 34.0692 20.2183 34.0585 20.0903C34.0372 19.7916 33.9892 19.5836 33.9145 19.4663C33.8398 19.349 33.7598 19.253 33.6745 19.1783C33.5785 19.1036 33.4505 19.061 33.2905 19.0503C33.1412 19.029 32.9812 19.0183 32.8105 19.0183L32.7465 18.9543L32.6985 18.6663L32.7305 18.6023C32.8052 18.6023 32.9118 18.6076 33.0505 18.6183C33.1892 18.629 33.3278 18.6396 33.4665 18.6503C33.6158 18.661 33.7598 18.6716 33.8985 18.6823C34.0372 18.693 34.1438 18.6983 34.2185 18.6983H34.9705C35.0452 18.6983 35.1518 18.6983 35.2905 18.6983C35.4292 18.6876 35.5732 18.677 35.7225 18.6663C35.8718 18.6556 36.0158 18.645 36.1545 18.6343C36.2932 18.6236 36.3998 18.613 36.4745 18.6023L36.4905 18.6663ZM49.052 18.6663L49.004 18.9543L48.94 19.0183C48.7693 19.0183 48.604 19.029 48.444 19.0503C48.2947 19.061 48.172 19.1036 48.076 19.1783C47.9907 19.253 47.9107 19.349 47.836 19.4663C47.7613 19.5836 47.7133 19.7916 47.692 20.0903C47.6813 20.2183 47.6707 20.3463 47.66 20.4743C47.66 20.6023 47.6547 20.757 47.644 20.9383C47.644 21.1196 47.644 21.3383 47.644 21.5943C47.644 21.8503 47.644 22.165 47.644 22.5383V25.6103C47.644 26.133 47.564 26.6236 47.404 27.0823C47.2547 27.5303 47.02 27.925 46.7 28.2663C46.38 28.597 45.9747 28.8583 45.484 29.0503C45.004 29.2423 44.4387 29.3383 43.788 29.3383C43.0413 29.3383 42.4067 29.2423 41.884 29.0503C41.372 28.8583 40.956 28.597 40.636 28.2663C40.316 27.925 40.0813 27.5303 39.932 27.0823C39.7933 26.6236 39.724 26.133 39.724 25.6103V22.5383C39.724 22.165 39.724 21.8503 39.724 21.5943C39.724 21.3383 39.724 21.1196 39.724 20.9383C39.724 20.757 39.7187 20.6023 39.708 20.4743C39.708 20.3463 39.7027 20.2183 39.692 20.0903C39.6707 19.8023 39.6173 19.5996 39.532 19.4823C39.4573 19.3543 39.3773 19.253 39.292 19.1783C39.196 19.1036 39.0733 19.061 38.924 19.0503C38.7747 19.029 38.6147 19.0183 38.444 19.0183L38.364 18.9543L38.316 18.6663L38.348 18.6023C38.4227 18.6023 38.5453 18.6076 38.716 18.6183C38.8867 18.629 39.0627 18.6396 39.244 18.6503C39.4253 18.661 39.6013 18.6716 39.772 18.6823C39.9427 18.693 40.0653 18.6983 40.14 18.6983H40.444C40.5187 18.6983 40.6413 18.693 40.812 18.6823C40.9827 18.6716 41.1587 18.661 41.34 18.6503C41.5213 18.6396 41.6973 18.629 41.868 18.6183C42.0387 18.6076 42.1613 18.6023 42.236 18.6023L42.268 18.6663L42.22 18.9543L42.156 19.0183C41.9853 19.0183 41.82 19.029 41.66 19.0503C41.5107 19.061 41.388 19.1036 41.292 19.1783C41.2067 19.253 41.1267 19.349 41.052 19.4663C40.9773 19.5836 40.9293 19.7916 40.908 20.0903C40.8973 20.2396 40.8867 20.3783 40.876 20.5063C40.876 20.6343 40.8707 20.7836 40.86 20.9543C40.86 21.125 40.86 21.333 40.86 21.5783C40.86 21.8236 40.86 22.1383 40.86 22.5223V25.1623C40.86 26.3143 41.116 27.141 41.628 27.6423C42.1507 28.1436 42.8707 28.3943 43.788 28.3943C44.7053 28.3943 45.4253 28.1436 45.948 27.6423C46.4707 27.141 46.732 26.3143 46.732 25.1623V22.5223C46.732 22.1383 46.732 21.8236 46.732 21.5783C46.732 21.333 46.7267 21.125 46.716 20.9543C46.716 20.7836 46.7107 20.6343 46.7 20.5063C46.7 20.3783 46.6947 20.2396 46.684 20.0903C46.6627 19.7916 46.6093 19.5836 46.524 19.4663C46.4493 19.349 46.3693 19.253 46.284 19.1783C46.1987 19.1036 46.076 19.061 45.916 19.0503C45.7667 19.029 45.6067 19.0183 45.436 19.0183L45.356 18.9543L45.308 18.6663L45.34 18.6023C45.4147 18.6023 45.5267 18.6076 45.676 18.6183C45.8253 18.629 45.98 18.6396 46.14 18.6503C46.3107 18.661 46.4707 18.6716 46.62 18.6823C46.7693 18.693 46.8813 18.6983 46.956 18.6983H47.308C47.3827 18.6983 47.5 18.693 47.66 18.6823C47.82 18.6716 47.9853 18.661 48.156 18.6503C48.3373 18.6396 48.508 18.629 48.668 18.6183C48.828 18.6076 48.9453 18.6023 49.02 18.6023L49.052 18.6663Z" fill="white"/>
<rect x="66" y="15.1623" width="48" height="1" fill="#FFFCF8"/>
<rect x="66" y="24.1623" width="48" height="1" fill="#FFFCF8"/>
<rect x="66" y="33.1623" width="48" height="1" fill="#FFFCF8"/>
</svg>
