<svg width="40" height="40" viewBox="0 0 40 40" fill="none" xmlns="http://www.w3.org/2000/svg">
<rect width="40" height="40" rx="20" fill="#ECEFF3"/>
<path d="M19.9021 11.2623C22.8064 11.2623 23.1481 11.2694 24.3014 11.3263C25.362 11.369 25.9315 11.5541 26.3159 11.7036C26.8213 11.9029 27.1844 12.145 27.5617 12.5294C27.939 12.9138 28.181 13.2839 28.3803 13.7965C28.5298 14.188 28.7007 14.7717 28.7576 15.8538C28.8146 17.0212 28.8217 17.37 28.8217 20.3242C28.8217 23.2785 28.8146 23.6273 28.7576 24.7947C28.7149 25.8696 28.5369 26.4605 28.3803 26.852C28.181 27.3645 27.9461 27.7347 27.5617 28.1191C27.1844 28.5035 26.8213 28.7455 26.3159 28.9449C25.9315 29.1015 25.3549 29.2794 24.3014 29.3222C23.1553 29.3791 22.8064 29.3862 19.9021 29.3862C16.9977 29.3862 16.656 29.3791 15.5028 29.3222C14.4421 29.2794 13.8726 29.0944 13.4882 28.9449C12.9828 28.7455 12.6197 28.5035 12.2424 28.1191C11.8651 27.7347 11.6231 27.3645 11.4238 26.852C11.2743 26.4605 11.1035 25.8768 11.0465 24.7947C10.9896 23.6273 10.9824 23.2785 10.9824 20.3242C10.9824 17.37 10.9896 17.0212 11.0465 15.8538C11.0892 14.7788 11.2672 14.188 11.4238 13.7965C11.6231 13.2839 11.858 12.9138 12.2424 12.5294C12.6197 12.145 12.9828 11.9029 13.4882 11.7036C13.8726 11.547 14.4492 11.369 15.5028 11.3263C16.6489 11.2765 16.9977 11.2623 19.9021 11.2623ZM19.9021 9.26904C16.9478 9.26904 16.5777 9.28328 15.4245 9.34023C14.2712 9.39718 13.474 9.58226 12.7834 9.85277C12.0645 10.1375 11.4594 10.5148 10.8614 11.1341C10.2563 11.7534 9.88618 12.3656 9.60855 13.0989C9.33804 13.7965 9.15296 14.608 9.10313 15.7826C9.04618 16.9571 9.03906 17.3344 9.03906 20.3385C9.03906 23.3425 9.0533 23.7198 9.10313 24.8944C9.16008 26.069 9.34516 26.8734 9.60855 27.5781C9.88618 28.3042 10.2563 28.9235 10.8614 29.5428C11.4665 30.1621 12.0716 30.5394 12.7834 30.8242C13.474 31.1018 14.2712 31.2869 15.4245 31.3367C16.5848 31.3937 16.955 31.4079 19.9021 31.4079C22.8492 31.4079 23.2264 31.3937 24.3797 31.3367C25.5329 31.2798 26.3302 31.0947 27.0207 30.8242C27.7396 30.5394 28.3447 30.1621 28.9427 29.5428C29.5478 28.9235 29.9179 28.3113 30.1956 27.5781C30.4661 26.8805 30.6511 26.069 30.701 24.8944C30.7579 23.7198 30.765 23.3425 30.765 20.3385C30.765 17.3344 30.7508 16.9571 30.701 15.7826C30.644 14.608 30.4589 13.8036 30.1956 13.0989C29.9179 12.3728 29.5478 11.7534 28.9427 11.1341C28.3376 10.5148 27.7325 10.1375 27.0207 9.85277C26.3302 9.57514 25.5329 9.39006 24.3797 9.34023C23.2264 9.28328 22.8492 9.26904 19.9021 9.26904Z" fill="#272424"/>
<path d="M19.9013 14.6509C16.8118 14.6509 14.3203 17.1922 14.3203 20.3315C14.3203 23.4708 16.8189 26.0122 19.9013 26.0122C22.9836 26.0122 25.4823 23.4708 25.4823 20.3315C25.4823 17.1922 22.9836 14.6509 19.9013 14.6509ZM19.9013 24.019C17.901 24.019 16.2779 22.3746 16.2779 20.3315C16.2779 18.2885 17.901 16.6441 19.9013 16.6441C21.9016 16.6441 23.5247 18.2885 23.5247 20.3315C23.5247 22.3746 21.9016 24.019 19.9013 24.019Z" fill="#272424"/>
<path d="M25.7011 15.7468C26.4206 15.7468 27.0038 15.154 27.0038 14.4227C27.0038 13.6914 26.4206 13.0986 25.7011 13.0986C24.9817 13.0986 24.3984 13.6914 24.3984 14.4227C24.3984 15.154 24.9817 15.7468 25.7011 15.7468Z" fill="#272424"/>
</svg>
