<svg width="40" height="40" viewBox="0 0 40 40" fill="none" xmlns="http://www.w3.org/2000/svg">
<rect width="40" height="40" rx="20" fill="#ECEFF3"/>
<path d="M20.1021 8.13477C14.0217 8.13477 9.03906 13.1174 9.03906 19.1978C9.03906 21.2247 9.63022 23.167 10.5592 24.856L9.12351 30.5143L14.6973 28.9097C16.3018 29.7542 18.1598 30.2609 20.1021 30.2609C26.1826 30.2609 31.1652 25.2783 31.1652 19.1978C31.1652 13.0329 26.1826 8.13477 20.1021 8.13477ZM20.1866 28.403C18.2442 28.403 16.4707 27.8118 14.9506 26.7984L11.8259 27.7274L12.6705 24.4338C11.657 22.9137 11.0659 21.1402 11.0659 19.1978C11.0659 14.1308 15.204 9.99269 20.271 9.99269C25.3381 9.99269 29.4762 14.1308 29.4762 19.1978C29.3917 24.2649 25.3381 28.403 20.1866 28.403Z" fill="#272424"/>
<path d="M17.3174 18.2694C17.4863 18.1005 17.5708 18.0161 17.7397 17.8472C17.993 17.5938 18.2464 17.3405 18.3308 17.0027C18.3308 16.6649 18.2464 16.3271 18.0775 15.9893C17.993 15.8203 17.9086 15.567 17.8241 15.3981C17.6552 15.0603 17.4863 14.5536 17.3174 14.3002C17.0641 14.0469 16.5573 13.9624 16.2195 14.1313C16.2195 14.1313 14.0238 15.1447 14.6994 17.256C14.6994 17.256 15.9662 23.1676 22.5534 24.3499C22.5534 24.3499 24.918 24.6877 25.5091 23.252C25.678 22.9142 25.7625 22.492 25.678 22.1542C25.678 21.8164 25.4247 21.6475 25.1713 21.4786C24.8335 21.3097 24.4957 21.0563 24.1579 20.8874C23.8201 20.7185 23.3979 20.4652 23.0601 20.5496C22.8067 20.6341 22.5534 20.8874 22.3845 21.1408C22.1311 21.3941 21.8778 21.6475 21.6244 21.9008C21.4555 21.9853 18.1619 20.803 17.3174 18.2694Z" fill="#272424"/>
</svg>
